<?xml version="1.0" encoding="UTF-8"?> <svg xmlns="http://www.w3.org/2000/svg" width="343" height="93" viewBox="0 0 343 93" fill="none"><path d="M0 46.5C0 20.8188 20.8188 0 46.5 0H296.5C322.181 0 343 20.8188 343 46.5V46.5C343 72.1812 322.181 93 296.5 93H46.5C20.8188 93 0 72.1812 0 46.5V46.5Z" fill="white"></path><path d="M300.692 42.905H296.787V51.4021C296.787 52.1727 297.006 52.7871 297.443 53.2453C297.902 53.6826 298.516 53.9013 299.287 53.9013H300.692V56.088H299.13C297.735 56.088 296.6 55.6715 295.725 54.8385C294.871 53.9846 294.444 52.8912 294.444 51.5583V42.905H291.945V40.7808H294.444V36.7197H296.787V40.7808H300.692V42.905Z" fill="#AFAFAF"></path><path d="M283.983 56.4004C282.566 56.4004 281.254 56.0567 280.047 55.3695C278.859 54.6614 277.912 53.7034 277.204 52.4955C276.496 51.2667 276.142 49.913 276.142 48.4343C276.142 46.9557 276.496 45.6124 277.204 44.4045C277.912 43.1757 278.859 42.2177 280.047 41.5305C281.254 40.8224 282.566 40.4683 283.983 40.4683C285.649 40.4683 287.148 40.9265 288.481 41.8429C289.835 42.7592 290.782 44.0192 291.324 45.6228H288.825C288.367 44.6856 287.7 43.9567 286.825 43.4361C285.951 42.9154 285.003 42.6551 283.983 42.6551C283.004 42.6551 282.098 42.9154 281.265 43.4361C280.432 43.9359 279.776 44.6231 279.297 45.4978C278.818 46.3725 278.578 47.3514 278.578 48.4343C278.578 49.5173 278.818 50.4961 279.297 51.3708C279.776 52.2455 280.432 52.9432 281.265 53.4639C282.098 53.9637 283.004 54.2136 283.983 54.2136C285.003 54.2136 285.951 53.9533 286.825 53.4326C287.7 52.912 288.367 52.1831 288.825 51.2459H291.324C290.782 52.8495 289.835 54.1095 288.481 55.0258C287.148 55.9422 285.649 56.4004 283.983 56.4004Z" fill="#AFAFAF"></path><path d="M315.711 43.6913L313.525 44.31C313.388 43.9457 313.185 43.5916 312.917 43.2478C312.655 42.8972 312.298 42.6085 311.844 42.3816C311.39 42.1547 310.809 42.0413 310.101 42.0413C309.132 42.0413 308.324 42.2647 307.678 42.7116C307.039 43.1516 306.719 43.7119 306.719 44.3925C306.719 44.9975 306.939 45.4754 307.379 45.826C307.819 46.1766 308.506 46.4688 309.441 46.7026L311.793 47.2801C313.209 47.6238 314.264 48.1498 314.959 48.8579C315.653 49.5591 316 50.4632 316 51.5701C316 52.4776 315.739 53.2889 315.216 54.0039C314.701 54.7189 313.979 55.2826 313.051 55.6951C312.123 56.1076 311.043 56.3139 309.813 56.3139C308.197 56.3139 306.86 55.9633 305.801 55.262C304.742 54.5607 304.072 53.5364 303.79 52.1888L306.1 51.6113C306.32 52.4638 306.736 53.1032 307.348 53.5295C307.967 53.9557 308.774 54.1689 309.771 54.1689C310.906 54.1689 311.806 53.9282 312.473 53.447C313.147 52.9589 313.484 52.3745 313.484 51.6938C313.484 51.1438 313.291 50.6832 312.906 50.312C312.521 49.9338 311.93 49.652 311.133 49.4663L308.493 48.8476C307.042 48.5038 305.976 47.971 305.296 47.2491C304.622 46.5204 304.285 45.6094 304.285 44.5163C304.285 43.6225 304.536 42.8319 305.038 42.1444C305.547 41.4569 306.238 40.9172 307.111 40.5253C307.991 40.1334 308.988 39.9375 310.101 39.9375C311.669 39.9375 312.899 40.2813 313.793 40.9688C314.694 41.6563 315.333 42.5638 315.711 43.6913Z" fill="#AFAFAF"></path><path d="M267.159 40.4683C268.555 40.4683 269.825 40.7911 270.971 41.4367C272.137 42.0615 273.053 42.9571 273.72 44.1233C274.386 45.2688 274.719 46.5808 274.719 48.0595C274.719 48.5593 274.699 48.9446 274.657 49.2153H261.943C262.088 50.7356 262.619 51.954 263.536 52.8703C264.473 53.7659 265.681 54.2136 267.159 54.2136C269.325 54.2136 270.887 53.3285 271.845 51.5583H274.345C273.72 53.1202 272.793 54.3177 271.564 55.1508C270.335 55.9838 268.867 56.4004 267.159 56.4004C265.722 56.4004 264.41 56.0567 263.223 55.3695C262.057 54.6614 261.141 53.7034 260.474 52.4955C259.808 51.2875 259.475 49.9338 259.475 48.4343C259.475 46.9349 259.808 45.5812 260.474 44.3732C261.141 43.1653 262.057 42.2177 263.223 41.5305C264.41 40.8224 265.722 40.4683 267.159 40.4683ZM267.159 42.6551C265.785 42.6551 264.64 43.0508 263.723 43.8422C262.828 44.6336 262.265 45.7165 262.036 47.0911H272.251C272.106 45.7582 271.554 44.6856 270.596 43.8734C269.659 43.0612 268.513 42.6551 267.159 42.6551Z" fill="#AFAFAF"></path><path d="M250.585 62.3358V60.1491H251.991C252.782 60.1491 253.396 59.9304 253.834 59.4931C254.271 59.0557 254.49 58.4413 254.49 57.6499V40.7807H256.833V57.8061C256.833 59.139 256.395 60.222 255.521 61.055C254.667 61.9089 253.542 62.3358 252.147 62.3358H250.585ZM257.02 37.8442H254.302V34.9702H257.02V37.8442Z" fill="#AFAFAF"></path><path d="M243.843 56.4004C242.385 56.4004 241.042 56.0567 239.813 55.3695C238.605 54.6614 237.637 53.7034 236.908 52.4955C236.2 51.2667 235.846 49.913 235.846 48.4343C235.846 46.9557 236.2 45.6124 236.908 44.4045C237.637 43.1757 238.605 42.2177 239.813 41.5305C241.042 40.8224 242.385 40.4683 243.843 40.4683C245.301 40.4683 246.634 40.8224 247.842 41.5305C249.07 42.2177 250.039 43.1757 250.747 44.4045C251.476 45.6124 251.84 46.9557 251.84 48.4343C251.84 49.913 251.476 51.2667 250.747 52.4955C250.039 53.7034 249.07 54.6614 247.842 55.3695C246.634 56.0567 245.301 56.4004 243.843 56.4004ZM243.843 54.2136C244.863 54.2136 245.79 53.9637 246.623 53.4639C247.477 52.9432 248.154 52.2455 248.654 51.3708C249.154 50.4961 249.404 49.5173 249.404 48.4343C249.404 47.3514 249.154 46.3725 248.654 45.4978C248.154 44.6231 247.477 43.9359 246.623 43.4361C245.79 42.9154 244.863 42.6551 243.843 42.6551C242.822 42.6551 241.885 42.9154 241.031 43.4361C240.198 43.9359 239.532 44.6231 239.032 45.4978C238.532 46.3725 238.282 47.3514 238.282 48.4343C238.282 49.5173 238.532 50.4961 239.032 51.3708C239.532 52.2455 240.198 52.9432 241.031 53.4639C241.885 53.9637 242.822 54.2136 243.843 54.2136Z" fill="#AFAFAF"></path><path d="M235.511 40.6245V42.8113H233.949C233.116 42.8113 232.356 43.0091 231.668 43.4048C230.981 43.7797 230.429 44.3107 230.013 44.998C229.617 45.6853 229.419 46.4663 229.419 47.341V56.088H227.076V40.7807H229.419V42.9675C230.044 42.1969 230.762 41.6138 231.575 41.2181C232.408 40.8224 233.303 40.6245 234.261 40.6245H235.511Z" fill="#AFAFAF"></path><path d="M216.577 40.4683C217.973 40.4683 219.274 40.8224 220.482 41.5305C221.69 42.2177 222.648 43.1757 223.356 44.4045C224.064 45.6124 224.418 46.9557 224.418 48.4343C224.418 49.913 224.064 51.2667 223.356 52.4955C222.648 53.7034 221.69 54.6614 220.482 55.3695C219.274 56.0567 217.973 56.4004 216.577 56.4004C215.432 56.4004 214.37 56.1609 213.391 55.6819C212.412 55.2029 211.6 54.5572 210.954 53.745V62.3358H208.611V40.7807H210.954V43.1237C211.6 42.3114 212.412 41.6658 213.391 41.1868C214.37 40.7078 215.432 40.4683 216.577 40.4683ZM216.421 54.2136C217.442 54.2136 218.368 53.9637 219.201 53.4639C220.055 52.9432 220.732 52.2455 221.232 51.3708C221.732 50.4961 221.982 49.5173 221.982 48.4343C221.982 47.3514 221.732 46.3725 221.232 45.4978C220.732 44.6231 220.055 43.9359 219.201 43.4361C218.368 42.9154 217.442 42.6551 216.421 42.6551C215.401 42.6551 214.453 42.9154 213.578 43.4361C212.725 43.9359 212.048 44.6231 211.548 45.4978C211.048 46.3725 210.798 47.3514 210.798 48.4343C210.798 49.5173 211.048 50.4961 211.548 51.3708C212.048 52.2455 212.725 52.9432 213.578 53.4639C214.453 53.9637 215.401 54.2136 216.421 54.2136Z" fill="#AFAFAF"></path><path d="M191.824 63.1215H189.45L198.322 34.0689H200.696L191.824 63.1215Z" fill="black"></path><path d="M181.794 44.8153H177.983V50.5633C177.983 51.3339 178.202 51.9379 178.639 52.3752C179.076 52.8126 179.68 53.0312 180.451 53.0312H181.794V56.8737H179.389C177.66 56.8737 176.296 56.3842 175.296 55.4054C174.318 54.4058 173.828 53.0521 173.828 51.3443V44.8153H171.235V40.9729H173.828V36.7556H177.983V40.9729H181.794V44.8153Z" fill="black"></path><path d="M171.223 40.7542V44.5966H169.224C168.12 44.5966 167.183 44.9715 166.412 45.7212C165.642 46.4709 165.256 47.4394 165.256 48.6265V56.8736H161.102V40.9728H165.1V42.7535C166.412 41.4206 168.026 40.7542 169.942 40.7542H171.223Z" fill="black"></path><path d="M153.779 40.9728H157.777V56.8736H153.779V55.2492C153.133 55.9365 152.394 56.4467 151.561 56.7799C150.728 57.0923 149.759 57.2485 148.655 57.2485C147.302 57.2485 146.011 56.8945 144.782 56.1864C143.553 55.4783 142.564 54.489 141.814 53.2186C141.064 51.9482 140.689 50.5216 140.689 48.9389C140.689 47.3352 141.064 45.8982 141.814 44.6278C142.564 43.3574 143.553 42.3682 144.782 41.6601C146.011 40.952 147.302 40.598 148.655 40.598C149.759 40.598 150.728 40.7646 151.561 41.0978C152.394 41.4102 153.133 41.91 153.779 42.5973V40.9728ZM149.311 53.4061C150.582 53.4061 151.644 52.9791 152.498 52.1253C153.352 51.2714 153.779 50.2093 153.779 48.9389C153.779 47.6476 153.352 46.5751 152.498 45.7212C151.644 44.8673 150.582 44.4404 149.311 44.4404C148.041 44.4404 146.979 44.8673 146.125 45.7212C145.271 46.5751 144.844 47.6476 144.844 48.9389C144.844 50.2093 145.271 51.2714 146.125 52.1253C146.979 52.9791 148.041 53.4061 149.311 53.4061Z" fill="black"></path><path d="M132.689 40.598C133.855 40.598 134.886 40.8791 135.782 41.4414C136.698 42.0037 137.396 42.7951 137.875 43.8156C138.375 44.8361 138.624 45.9919 138.624 47.2832V56.8736H134.47V47.9392C134.47 46.8979 134.209 46.0544 133.689 45.4088C133.168 44.7632 132.47 44.4404 131.596 44.4404C130.742 44.4404 130.013 44.7736 129.409 45.4401C128.805 46.0857 128.503 46.9187 128.503 47.9392V56.8736H124.348V47.9392C124.348 46.8979 124.088 46.0544 123.567 45.4088C123.046 44.7632 122.349 44.4404 121.474 44.4404C120.62 44.4404 119.891 44.7736 119.287 45.4401C118.683 46.0857 118.381 46.9187 118.381 47.9392V56.8736H114.227V40.9728H118.069V42.7847C118.652 42.0558 119.329 41.5143 120.1 41.1603C120.87 40.7854 121.693 40.598 122.567 40.598C123.588 40.598 124.536 40.8583 125.41 41.3789C126.285 41.8788 126.962 42.566 127.441 43.4407C128.732 41.5456 130.481 40.598 132.689 40.598Z" fill="black"></path><path d="M104.998 57.2485C103.644 57.2485 102.446 57.0194 101.405 56.5612C100.364 56.1031 99.5516 55.4679 98.9684 54.6556C98.3853 53.8434 98.0625 52.9271 98 51.9066H102.124C102.186 52.4272 102.478 52.875 102.998 53.2499C103.519 53.6247 104.185 53.8122 104.998 53.8122C105.747 53.8122 106.33 53.6976 106.747 53.4686C107.184 53.2186 107.403 52.8438 107.403 52.3439C107.403 51.8441 107.153 51.4796 106.653 51.2506C106.153 51.0006 105.362 50.7507 104.279 50.5008C103.071 50.2093 102.072 49.9073 101.28 49.5949C100.51 49.2825 99.8431 48.7827 99.2808 48.0954C98.7185 47.4081 98.4374 46.4709 98.4374 45.2839C98.4374 44.4092 98.7081 43.6178 99.2496 42.9097C99.8119 42.1808 100.572 41.6184 101.53 41.2227C102.488 40.8062 103.571 40.598 104.779 40.598C105.904 40.598 106.945 40.8271 107.903 41.2852C108.861 41.7226 109.631 42.3369 110.215 43.1283C110.819 43.8989 111.141 44.7736 111.183 45.7524H107.122C107.08 45.2526 106.83 44.8465 106.372 44.5341C105.935 44.2009 105.352 44.0343 104.623 44.0343C103.998 44.0343 103.498 44.1384 103.123 44.3467C102.769 44.5549 102.592 44.8465 102.592 45.2214C102.592 45.7212 102.842 46.0961 103.342 46.346C103.863 46.5959 104.685 46.8458 105.81 47.0957C106.997 47.3873 107.965 47.6893 108.715 48.0017C109.486 48.2932 110.152 48.7722 110.714 49.4387C111.277 50.0843 111.558 50.959 111.558 52.0628C111.558 53.6872 110.954 54.9576 109.746 55.874C108.538 56.7903 106.955 57.2485 104.998 57.2485Z" fill="black"></path><path d="M50 20C40.5107 20 32.8182 27.835 32.8182 37.5C32.8182 47.165 40.5107 55 50 55V65C35.0883 65 23 52.6878 23 37.5C23 22.3122 35.0883 10 50 10V20Z" fill="black"></path><path d="M51 74C60.4893 74 68.1818 66.165 68.1818 56.5C68.1818 46.835 60.4893 39 51 39L51 29C65.9117 29 78 41.3122 78 56.5C78 71.6878 65.9117 84 51 84L51 74Z" fill="#2400E9"></path></svg> 